<svg xmlns="http://www.w3.org/2000/svg" width="20px" height="16px" viewBox="0 0 20 16" style="enable-background:new 0 0 20 16;">
	<style>
		.st0{fill:#524E74;}
	</style>
	<g>
		<path id="vector" class="st0" d="M1.5,14.9L2,14l0,0L1.5,14.9z M1.1,14.5l-0.9,0.5l0,0L1.1,14.5z M18.9,14.5L18,14l0,0L18.9,14.5z
			M18.5,14.9l0.5,0.9L18.5,14.9z M18.9,1.5L18,2l0,0L18.9,1.5z M18.5,1.1l0.5-0.9l0,0L18.5,1.1z M1.1,1.5L0.2,1.1l0,0L1.1,1.5z
			M1.5,1.1L1.1,0.2l0,0L1.5,1.1z M10.6,8.5l0.6,0.8l0,0L10.6,8.5z M9.4,8.5L8.7,9.3l0,0L9.4,8.5z M18,2.6v10.8h2V2.6H18z M17.4,14
			H2.6v2h14.8V14z M2,13.4V2.6H0v10.8H2z M2.6,2h14.8V0H2.6V2z M2.6,14c-0.3,0-0.5,0-0.6,0c-0.1,0-0.1,0,0,0l-0.9,1.8
			C1.4,15.9,1.6,16,1.9,16c0.2,0,0.5,0,0.7,0V14z M0,13.4c0,0.3,0,0.5,0,0.7c0,0.2,0.1,0.5,0.2,0.8L2,14c0,0.1,0,0.1,0,0
			c0-0.1,0-0.3,0-0.6H0z M2,14L2,14l-1.8,0.9c0.2,0.4,0.5,0.7,0.9,0.9L2,14z M18,13.4c0,0.3,0,0.5,0,0.6c0,0.1,0,0.1,0,0l1.8,0.9
			c0.1-0.3,0.2-0.5,0.2-0.8c0-0.2,0-0.5,0-0.7H18z M17.4,16c0.3,0,0.5,0,0.7,0c0.2,0,0.5-0.1,0.8-0.2L18,14c0.1,0,0.1,0,0,0
			c-0.1,0-0.3,0-0.6,0V16z M18,14L18,14l0.9,1.8c0.4-0.2,0.7-0.5,0.9-0.9L18,14z M20,2.6c0-0.3,0-0.5,0-0.7c0-0.2-0.1-0.5-0.2-0.8
			L18,2c0-0.1,0-0.1,0,0c0,0.1,0,0.3,0,0.6H20z M17.4,2c0.3,0,0.5,0,0.6,0c0.1,0,0.1,0,0,0l0.9-1.8C18.6,0.1,18.4,0,18.1,0
			c-0.2,0-0.5,0-0.7,0V2z M19.8,1.1c-0.2-0.4-0.5-0.7-0.9-0.9L18,2l0,0L19.8,1.1z M2,2.6C2,2.3,2,2.1,2,2c0-0.1,0-0.1,0,0L0.2,1.1
			C0.1,1.4,0,1.6,0,1.9c0,0.2,0,0.5,0,0.7H2z M2.6,0C2.3,0,2.1,0,1.9,0C1.6,0,1.4,0.1,1.1,0.2L2,2C1.9,2,1.9,2,2,2c0.1,0,0.3,0,0.6,0
			V0z M2,2L1.1,0.2C0.7,0.4,0.4,0.7,0.2,1.1L2,2z M18.4,0.9L10,7.7l1.3,1.5l8.4-6.8L18.4,0.9z M10,7.7L1.6,0.9L0.4,2.4l8.4,6.8
			L10,7.7z M10,7.7L10,7.7L8.7,9.3c0.7,0.6,1.8,0.6,2.5,0L10,7.7z" />
	</g>
</svg>
