<svg width="230" height="270" viewBox="0 0 230 270" fill="none" xmlns="http://www.w3.org/2000/svg">
<path d="M222.683 92.0418C213.445 97.4435 205.793 104.997 200.443 113.994C195.093 122.992 192.22 133.139 192.092 143.487C192.129 155.133 195.739 166.512 202.478 176.217C209.216 185.921 218.785 193.523 230 198.082C225.579 211.714 219.035 224.632 210.588 236.403C198.502 253.026 185.866 269.65 166.638 269.65C147.41 269.65 142.465 258.975 120.306 258.975C98.6949 258.975 91.0062 270 73.4311 270C55.8559 270 43.5847 254.601 29.4841 235.703C10.8564 209.229 0.618814 178.182 0 146.286C0 93.7883 35.7103 65.9687 70.8697 65.9687C89.5497 65.9687 105.113 77.6928 116.832 77.6928C128.003 77.6928 145.4 65.2692 166.643 65.2692C177.565 64.999 188.389 67.2997 198.162 71.9684C207.934 76.6371 216.355 83.5307 222.683 92.0418ZM118.3 62.2938C117.01 62.2901 115.722 62.1733 114.454 61.9448C114.096 60.3335 113.912 58.6913 113.905 57.044C114.516 43.5013 120.017 30.5787 129.471 20.4728C140.083 8.82586 154.956 1.50067 171.041 0C171.423 1.78462 171.607 3.60278 171.59 5.42432C171.241 19.2379 165.94 32.5182 156.574 43.0455C151.892 48.5651 146.086 53.1177 139.506 56.4266C132.927 59.7355 125.712 61.7317 118.3 62.2938Z" fill="#5A49A7"/>
</svg>
