<svg width="765" height="331" viewBox="0 0 765 331" fill="none" xmlns="http://www.w3.org/2000/svg">
<path d="M280.414 68.2948C280.541 68.165 280.541 68.0353 280.414 67.9055C280.159 67.5163 279.65 66.8675 278.505 65.1807C277.104 63.1046 268.448 50.9077 257.245 40.5273C246.043 30.1469 211.926 0.692657 157.824 0.692657C101.429 0.692657 63.2393 32.0933 43.5077 54.4111C24.2853 76.3396 14.6104 100.474 14.3558 101.123C14.1012 101.771 13.9739 101.901 14.2285 102.031C14.4831 102.161 14.6104 101.771 14.9923 100.993C15.3742 100.344 25.431 77.8966 47.1994 59.731C68.9678 41.4356 105.376 20.5451 158.333 20.5451C203.525 20.5451 236.113 36.8942 251.135 46.1068C266.029 55.1896 275.577 64.2724 277.613 66.2187C278.759 67.3865 279.396 67.9055 279.778 68.1651C280.159 68.4246 280.287 68.4245 280.414 68.2948Z" fill="#5A49A7"/>
<path d="M1.49847 154.582C1.62577 154.582 1.75307 154.582 1.75307 154.711C1.88037 154.971 1.75307 155.49 1.75307 156.787C1.75307 157.696 0.607361 184.555 14.1012 212.841C27.8497 241.906 52.2914 272.399 91.3727 292.381C128.544 311.325 164.698 314.05 191.813 311.066C217.909 308.081 238.023 298.09 240.314 297.182C241.205 296.793 241.333 296.533 241.46 296.793V296.922C241.333 297.052 241.078 297.312 240.569 297.831C239.805 298.479 238.659 299.517 237.005 300.685C233.949 303.021 227.839 308.73 207.344 317.553C177.937 330.269 128.672 338.314 79.5337 311.066C32.3052 284.985 11.1733 239.96 4.04448 205.575C-1.30215 179.624 0.989263 157.825 0.989263 156.139C0.989263 155.49 0.989261 155.101 1.11656 154.971C1.24386 154.711 1.37116 154.582 1.49847 154.582Z" fill="#5A49A7"/>
<path d="M522.922 203.759C523.304 203.759 523.813 203.759 524.195 203.759L534.252 204.667C546.727 205.575 547.236 207.392 547.236 210.506C547.236 214.528 541.89 217.123 533.742 217.123C522.285 217.123 519.867 214.269 519.867 209.987C519.994 207.651 521.012 205.575 522.922 203.759ZM533.233 147.186C539.853 147.186 541.253 153.284 541.253 158.344C541.253 165.481 538.325 169.633 533.233 169.633C526.359 169.633 525.213 162.497 525.213 158.344C525.34 154.192 526.359 147.186 533.233 147.186ZM502.044 213.101C502.044 224.26 510.956 228.542 531.196 228.542C552.328 228.542 565.949 220.627 565.949 207.392C565.949 194.287 558.057 189.096 537.689 187.799L529.032 187.41C524.067 186.891 523.813 185.723 523.813 184.555C523.813 184.166 523.94 183.387 524.959 182.479C527.505 183.128 530.305 183.387 533.233 183.387C549.909 183.387 560.221 173.526 560.221 157.825C560.221 155.36 559.839 152.895 559.075 150.3C562.512 149.651 565.44 149.651 566.968 149.651H567.986V131.875L566.84 132.004C562.003 132.523 556.147 135.118 552.328 138.492C547.745 134.34 541.126 132.134 533.233 132.134C516.557 132.134 505.736 142.255 505.736 157.825C505.736 166 508.919 173.007 514.647 177.678C509.937 181.181 506.882 186.112 506.882 190.653C506.882 194.157 508.41 197.141 511.21 199.347C504.972 202.98 502.044 207.521 502.044 213.101ZM310.33 269.804H280.541V233.602H259.409V328.712H280.541V287.969H310.33V328.712H331.462V233.602H310.33V269.804ZM474.548 328.712H495.17V240.479L474.548 243.334V328.712ZM441.831 308.081C438.394 311.195 434.83 312.882 431.138 312.882C427.828 312.882 425.919 310.806 425.919 307.173C425.919 303.151 427.701 298.22 441.831 294.846V308.081ZM461.817 311.066V280.833C461.817 264.743 454.816 257.217 439.667 257.217C427.701 257.217 417.008 261.11 408.733 268.506L407.969 269.155L417.517 282.001L418.281 281.352C421.845 278.627 428.974 274.215 436.103 274.215C440.176 274.215 441.831 276.162 441.831 280.963V282.909C417.644 287.58 405.932 296.663 405.932 310.806C405.932 322.744 412.298 329.621 423.245 329.621C430.756 329.621 436.867 326.896 441.959 321.446C442.213 324.43 442.722 326.506 443.104 328.193L443.359 328.972H463.854L463.345 327.544C462.199 324.171 461.817 319.629 461.817 311.066ZM404.914 183.257C401.604 186.371 397.913 188.058 394.221 188.058C390.911 188.058 389.002 185.982 389.002 182.349C389.002 178.327 390.911 173.396 404.914 170.022V183.257ZM406.442 203.759H426.937L426.555 202.331C425.41 199.217 425.028 194.676 425.028 186.112V155.879C425.028 139.79 418.026 132.264 402.877 132.264C390.911 132.264 380.218 136.156 371.943 143.552L371.179 144.201L380.727 157.047L381.618 156.398C385.183 153.673 392.311 149.262 399.44 149.262C403.514 149.262 405.169 151.208 405.169 156.009V157.955C380.982 162.626 369.27 171.709 369.27 185.852C369.27 197.79 375.635 204.667 386.583 204.667C394.094 204.667 400.204 201.942 405.296 196.492C405.551 199.477 406.06 201.553 406.442 203.24V203.759ZM477.985 132.134C469.837 132.134 463.218 136.546 459.144 141.087V133.561H438.521V203.759H459.144V155.749C463.09 152.116 466.655 150.17 469.71 150.17C472.256 150.17 474.675 150.948 474.675 157.047V203.629H495.17V150.948C495.17 138.752 489.187 132.134 477.985 132.134ZM532.979 235.289L512.483 238.014V258.385H502.936V274.475H512.483V310.547C512.483 324.43 518.084 329.361 533.87 329.361C538.071 329.361 544.181 328.842 545.709 328.453L546.472 328.193V312.233L545.072 312.882C544.436 313.142 541.762 313.531 539.98 313.531C534.379 313.531 533.106 312.104 533.106 305.746V274.345H547.363V258.256H533.106V235.289H532.979ZM680.393 132.134C672.245 132.134 665.626 136.546 661.552 141.087V133.561H640.929V203.759H661.552V155.749C665.498 152.116 669.063 150.17 672.118 150.17C674.664 150.17 677.083 150.948 677.083 157.047V203.629H697.578V150.948C697.578 138.752 691.595 132.134 680.393 132.134ZM736.405 148.743C738.314 148.743 744.17 148.743 745.316 161.588H726.985C728.003 153.284 731.313 148.743 736.405 148.743ZM751.808 179.624L751.172 180.662C748.753 184.685 743.788 188.967 737.678 188.967C731.058 188.967 727.494 184.166 726.73 174.304H764.156V169.893C764.156 145.888 753.972 132.264 736.278 132.264C722.529 132.264 706.489 141.866 706.489 168.855C706.489 191.691 717.819 205.316 736.787 205.316C748.371 205.316 757.155 200.515 763.647 190.783L764.156 190.005L751.808 179.624ZM595.865 257.088C587.718 257.088 581.098 261.499 577.025 266.041V229.32L556.402 232.175V328.712H577.025V280.833C580.971 277.2 584.535 275.253 587.59 275.253C590.136 275.253 592.555 276.032 592.555 282.13V328.712H613.051V276.032C613.051 263.705 607.195 257.088 595.865 257.088ZM600.702 188.577C596.502 188.577 590.9 186.501 590.9 168.725C590.9 155.23 593.955 149.262 600.702 149.262C604.903 149.262 610.505 151.338 610.505 168.725C610.505 182.479 607.577 188.577 600.702 188.577ZM600.702 132.134C592.173 132.134 584.79 135.118 579.571 140.568C573.46 147.056 570.278 156.398 570.278 168.595C570.278 195.454 586.063 205.056 600.702 205.056C615.469 205.056 631.127 195.454 631.127 168.595C631.127 156.398 627.945 146.926 621.834 140.568C616.488 135.118 609.232 132.134 600.702 132.134ZM371.179 273.696C373.089 273.696 378.945 273.696 380.09 286.542H361.887C362.778 278.238 366.087 273.696 371.179 273.696ZM386.074 305.616C383.655 309.638 378.69 313.92 372.58 313.92C365.96 313.92 362.396 309.119 361.632 299.388H399.058V294.846C399.058 270.842 388.874 257.217 371.179 257.217C357.431 257.217 341.391 266.819 341.391 293.808C341.391 316.645 352.721 330.269 371.689 330.269C383.273 330.269 392.057 325.468 398.549 315.737L399.058 314.958L386.583 304.837L386.074 305.616ZM280.541 169.893V107.221H260.301V168.984C260.301 181.7 256.736 186.761 248.207 186.761C239.551 186.761 236.113 181.7 236.113 168.855V107.221H214.982V170.022C214.982 193.378 226.057 205.316 247.952 205.316C269.975 205.316 280.541 193.638 280.541 169.893ZM108.813 162.626C102.066 149.002 81.0614 109.557 80.0429 107.74L79.7883 107.221H58.5291V203.759H77.8788V146.796C84.7531 160.161 107.54 201.293 108.686 203.24L108.94 203.759H128.29V107.221H108.94V162.626H108.813ZM360.359 185.723H331.844V107.221H310.712V203.759H360.359V185.723ZM182.52 203.759V165.74L209.253 107.091H188.376L172.463 145.499L156.551 107.091H134.782L161.388 165.87V203.759H182.52Z" fill="#5A49A7"/>
</svg>
