<svg width="830" height="610" viewBox="0 0 830 610" fill="none" xmlns="http://www.w3.org/2000/svg">
<path d="M352.469 66.5281C379.597 37.2672 417.299 19.0626 459.047 19.0626C514.589 19.0626 562.957 51.1828 588.798 98.7437C611.235 88.3547 636.064 82.5406 662.087 82.5406C762.228 82.5406 843.334 167.369 843.334 272.117C843.334 376.866 762.136 461.694 662.087 461.694C649.857 461.694 637.902 460.454 626.407 457.977C603.695 499.914 560.383 528.317 510.727 528.317C489.944 528.317 470.266 523.361 452.794 514.497C429.804 570.636 376.103 610 313.664 610C251.226 610 193.109 567.3 171.774 507.444C162.488 509.446 152.832 510.589 142.9 510.589C65.3811 510.589 2.57478 444.823 2.57478 363.617C2.57478 309.194 30.8054 261.728 72.7376 236.28C64.0937 215.693 59.312 192.913 59.312 169.084C59.312 75.6781 132.417 0 222.627 0C275.594 0 322.675 26.1156 352.469 66.5281Z" fill="#5A49A7"/>
<path d="M124.418 316.343C123.865 317.772 124.601 318.057 124.785 318.344C126.348 319.487 128.003 320.346 129.566 321.394C138.119 326.064 146.211 327.494 154.671 327.494C171.959 327.494 182.626 317.963 182.626 302.713V302.427C182.626 288.32 170.487 283.173 159.176 279.456L157.705 278.98C149.153 276.12 141.797 273.643 141.797 267.733V267.447C141.797 262.49 146.119 258.773 152.831 258.773C160.281 258.773 169.108 261.347 174.717 264.587C174.717 264.587 176.373 265.731 177.016 264.016C177.384 263.063 180.234 255.056 180.511 254.199C180.878 253.246 180.234 252.578 179.683 252.197C173.154 248.098 164.234 245.334 154.947 245.334H153.2C137.383 245.334 126.348 255.247 126.348 269.353V269.639C126.348 284.603 138.487 289.369 149.889 292.8L151.728 293.372C160.004 296.04 167.177 298.328 167.177 304.333V304.619C167.177 310.147 162.488 314.246 155.039 314.246C152.096 314.246 142.808 314.246 132.786 307.573C131.589 306.811 130.854 306.334 129.935 305.763C129.474 305.477 128.187 304.904 127.636 306.524L124.233 316.343H124.418Z" fill="#19172B"/>
<path d="M376.837 316.343C376.286 317.772 377.022 318.057 377.206 318.344C378.769 319.487 380.424 320.346 381.987 321.394C390.539 326.064 398.632 327.494 407.092 327.494C424.379 327.494 435.046 317.963 435.046 302.713V302.427C435.046 288.32 423 283.173 411.597 279.456L410.126 278.98C401.574 276.12 394.218 273.643 394.218 267.733V267.447C394.218 262.49 398.54 258.773 405.252 258.773C412.701 258.773 421.529 261.347 427.138 264.587C427.138 264.587 428.793 265.731 429.437 264.016C429.804 263.063 432.655 255.056 432.931 254.199C433.299 253.246 432.655 252.578 432.104 252.197C425.574 248.098 416.655 245.334 407.367 245.334H405.621C389.804 245.334 378.769 255.247 378.769 269.353V269.639C378.769 284.603 390.908 289.369 402.309 292.8L404.149 293.372C412.425 296.04 419.598 298.328 419.598 304.333V304.619C419.598 310.147 414.908 314.246 407.459 314.246C404.517 314.246 395.229 314.246 385.206 307.573C384.01 306.811 383.274 306.334 382.356 305.763C382.079 305.572 380.608 305 380.056 306.524L376.654 316.343H376.837Z" fill="#19172B"/>
<path d="M563.602 270.306C562.223 265.35 560.016 260.966 557.073 257.344C554.13 253.722 550.452 250.767 546.037 248.67C541.624 246.573 536.474 245.43 530.589 245.43C524.704 245.43 519.554 246.478 515.14 248.67C510.727 250.767 507.049 253.722 504.106 257.344C501.163 260.966 498.956 265.35 497.577 270.306C496.197 275.263 495.462 280.6 495.462 286.319C495.462 292.037 496.197 297.47 497.577 302.331C498.956 307.287 501.163 311.672 504.106 315.294C507.049 318.916 510.818 321.87 515.14 323.967C519.554 326.064 524.704 327.113 530.589 327.113C536.474 327.113 541.624 326.064 546.037 323.967C550.452 321.87 554.13 319.011 557.073 315.294C560.016 311.672 562.223 307.287 563.602 302.331C564.981 297.374 565.717 292.037 565.717 286.319C565.717 280.6 564.981 275.167 563.602 270.306ZM549.164 286.319C549.164 294.993 547.601 301.76 544.567 306.62C541.532 311.386 536.934 313.673 530.589 313.673C524.244 313.673 519.646 311.386 516.612 306.62C513.578 301.76 512.014 294.993 512.014 286.319C512.014 277.646 513.578 270.878 516.519 266.113C519.554 261.347 524.061 259.06 530.498 259.06C536.934 259.06 541.44 261.347 544.475 266.113C547.509 270.878 549.072 277.646 549.072 286.319" fill="#19172B"/>
<path fill-rule="evenodd" clip-rule="evenodd" d="M681.858 311.386C681.397 309.956 680.018 310.528 680.018 310.528C677.903 311.386 675.697 312.149 673.306 312.53C670.914 312.911 668.248 313.101 665.397 313.101C658.409 313.101 652.891 310.91 648.937 306.716C644.983 302.427 642.684 295.564 642.776 286.319C642.776 277.836 644.799 271.546 648.293 266.684C651.787 261.823 657.121 259.44 664.294 259.44C670.271 259.44 674.777 260.107 679.559 261.728C679.559 261.728 680.663 262.204 681.214 260.68C682.501 257.057 683.421 254.484 684.801 250.481C685.168 249.337 684.248 248.861 683.881 248.766C682.042 248.003 677.628 246.764 674.318 246.287C671.191 245.811 667.604 245.524 663.558 245.524C657.489 245.524 652.156 246.573 647.466 248.766C642.868 250.863 639.006 253.817 635.879 257.439C632.752 261.061 630.454 265.446 628.891 270.401C627.327 275.357 626.499 280.696 626.499 286.51C626.499 298.9 629.719 308.907 636.064 316.247C642.409 323.586 651.971 327.303 664.477 327.303C671.834 327.303 679.374 325.778 684.893 323.49C684.893 323.49 685.904 323.014 685.444 321.68L681.95 311.577L681.858 311.386Z" fill="#19172B"/>
<path fill-rule="evenodd" clip-rule="evenodd" d="M755.514 267.543C754.319 262.777 751.284 257.916 749.261 255.723C746.136 252.197 743.101 249.814 739.974 248.384C736.02 246.573 731.238 245.43 725.997 245.43C719.928 245.43 714.411 246.478 709.904 248.67C705.398 250.863 701.629 253.817 698.686 257.534C695.743 261.251 693.536 265.636 692.064 270.687C690.685 275.644 689.949 281.077 689.949 286.796C689.949 292.514 690.685 298.043 692.157 302.903C693.628 307.86 696.019 312.149 699.237 315.77C702.456 319.393 706.594 322.251 711.468 324.157C716.341 326.16 722.318 327.113 729.123 327.113C743.193 327.113 750.641 323.777 753.676 322.061C754.227 321.776 754.688 321.203 754.135 319.678L750.917 310.433C750.458 309.099 749.077 309.574 749.077 309.574C745.583 310.91 740.617 313.293 729.031 313.293C721.491 313.293 715.882 311.004 712.388 307.383C708.801 303.666 707.054 298.233 706.686 290.607H755.423C755.423 290.607 756.711 290.607 756.803 289.369C756.803 288.797 758.457 278.98 755.331 267.637L755.514 267.543ZM707.054 278.122C707.697 273.356 708.984 269.353 711.007 266.207C713.95 261.443 718.548 258.869 724.986 258.869C731.423 258.869 735.561 261.443 738.594 266.207C740.617 269.353 741.445 273.451 741.814 278.122H707.054Z" fill="#19172B"/>
<path fill-rule="evenodd" clip-rule="evenodd" d="M365.251 267.543C364.056 262.777 361.021 257.916 358.998 255.723C355.871 252.197 352.838 249.814 349.711 248.384C345.757 246.573 340.974 245.43 335.734 245.43C329.664 245.43 324.147 246.478 319.641 248.67C315.135 250.863 311.364 253.817 308.423 257.534C305.48 261.251 303.273 265.636 301.801 270.687C300.422 275.644 299.686 281.077 299.686 286.796C299.686 292.514 300.422 298.043 301.894 302.903C303.365 307.86 305.755 312.149 308.974 315.77C312.192 319.393 316.33 322.251 321.204 324.157C326.077 326.16 332.055 327.113 338.859 327.113C352.929 327.113 360.378 323.777 363.413 322.061C363.964 321.776 364.424 321.203 363.78 319.678L360.562 310.433C360.102 309.099 358.722 309.574 358.722 309.574C355.228 310.91 350.262 313.293 338.676 313.293C331.135 313.293 325.526 311.004 322.032 307.383C318.445 303.666 316.698 298.233 316.33 290.607H365.067C365.067 290.607 366.354 290.607 366.447 289.369C366.447 288.797 368.102 278.98 364.975 267.637L365.251 267.543ZM316.791 278.122C317.434 273.356 318.721 269.353 320.744 266.207C323.779 261.443 328.284 258.869 334.722 258.869C341.159 258.869 345.296 261.443 348.423 266.207C350.446 269.353 351.274 273.451 351.642 278.122H316.883H316.791Z" fill="#19172B"/>
<path d="M230.811 275.644C228.787 275.453 226.305 275.453 223.178 275.453C219.04 275.453 214.994 276.024 211.133 277.073C207.362 278.122 203.868 279.743 200.925 281.934C197.982 284.127 195.592 286.89 193.844 290.227C192.098 293.563 191.27 297.47 191.27 301.854C191.27 306.239 192.006 310.243 193.477 313.387C194.948 316.533 197.062 319.201 199.822 321.299C202.489 323.3 205.891 324.826 209.752 325.778C213.615 326.636 217.937 327.113 222.627 327.113C227.592 327.113 232.65 326.636 237.432 325.873C242.213 325.016 248.099 323.777 249.662 323.396C251.318 323.014 253.064 322.537 253.064 322.537C254.259 322.251 254.167 320.917 254.167 320.917V274.69C254.167 264.587 251.501 257.057 246.352 252.387C241.202 247.717 233.753 245.43 224.006 245.43C220.327 245.43 214.443 245.906 210.949 246.669C210.949 246.669 200.281 248.766 195.959 252.387C195.959 252.387 195.039 252.96 195.5 254.389L198.994 264.016C199.454 265.254 200.558 264.873 200.558 264.873C200.558 264.873 200.925 264.683 201.384 264.493C210.764 259.25 222.627 259.346 222.627 259.346C227.869 259.346 231.914 260.489 234.673 262.586C237.339 264.683 238.719 267.923 238.719 274.596V276.693C234.581 276.026 230.719 275.739 230.719 275.739L230.811 275.644ZM211.408 311.1C209.477 309.48 209.201 309.099 208.557 308.146C207.637 306.62 207.086 304.428 207.086 301.569C207.086 297.089 208.465 293.944 211.408 291.751C211.408 291.751 215.638 287.939 225.569 288.13C232.558 288.13 238.811 289.273 238.811 289.273V312.244C238.811 312.244 232.65 313.578 225.661 314.054C215.73 314.627 211.316 311.1 211.408 311.1Z" fill="#19172B"/>
<path fill-rule="evenodd" clip-rule="evenodd" d="M623.833 249.623C624.201 248.48 623.466 247.907 623.097 247.813C622.269 247.527 618.132 246.573 614.913 246.383C608.753 246.001 605.349 247.05 602.316 248.48C599.281 249.91 595.971 252.197 594.039 254.77V248.574C594.039 247.717 593.487 247.05 592.659 247.05H580.154C579.326 247.05 578.774 247.717 578.774 248.574V323.967C578.774 324.826 579.418 325.493 580.246 325.493H593.028C593.856 325.493 594.499 324.826 594.499 323.967V286.319C594.499 281.267 595.051 276.216 596.154 273.07C597.166 269.924 598.637 267.447 600.384 265.636C602.131 263.826 604.154 262.586 606.361 261.919C608.661 261.156 611.143 260.966 612.891 260.966C615.465 260.966 618.224 261.633 618.224 261.633C619.143 261.728 619.695 261.156 619.971 260.299C620.798 258.011 623.189 251.053 623.649 249.719L623.833 249.623Z" fill="#19172B"/>
<path fill-rule="evenodd" clip-rule="evenodd" d="M503.646 214.739C502.083 214.263 500.704 213.881 498.864 213.596C497.025 213.214 494.726 213.023 492.243 213.023C483.415 213.023 476.519 215.597 471.645 220.744C466.771 225.796 463.461 233.516 461.898 243.619L461.346 247.05H450.311C450.311 247.05 448.932 247.05 448.656 248.48L446.816 258.964C446.724 260.013 447.093 260.584 448.38 260.584H459.139L448.196 323.777C447.368 328.828 446.357 333.022 445.253 336.263C444.15 339.407 443.138 341.696 441.851 343.411C440.564 345.031 439.461 346.27 437.438 346.937C435.782 347.51 433.851 347.796 431.736 347.796C430.54 347.796 428.978 347.604 427.782 347.319C426.586 347.128 426.035 346.843 425.115 346.461C425.115 346.461 423.828 345.984 423.367 347.319C423 348.367 420.057 356.564 419.782 357.613C419.414 358.566 419.965 359.423 420.518 359.614C421.988 360.186 423 360.472 424.931 360.949C427.597 361.616 429.897 361.616 432.104 361.616C436.61 361.616 440.656 360.949 444.058 359.71C447.46 358.47 450.403 356.183 453.069 353.228C455.92 349.987 457.668 346.556 459.414 341.886C461.07 337.311 462.541 331.593 463.737 324.92L474.68 260.489H490.772C490.772 260.489 492.151 260.489 492.428 259.06L494.266 248.574C494.359 247.527 493.99 246.954 492.703 246.954H477.162C477.162 246.954 477.99 240.95 479.738 235.517C480.472 233.23 481.944 231.419 483.14 230.084C484.335 228.846 485.714 227.987 487.186 227.416C488.749 226.939 490.496 226.653 492.428 226.653C493.898 226.653 495.369 226.844 496.473 227.034C497.945 227.32 498.588 227.511 498.956 227.701C500.519 228.178 500.796 227.701 501.071 226.939L504.841 216.36C505.209 215.216 504.29 214.739 503.922 214.644L503.646 214.739Z" fill="#19172B"/>
<path fill-rule="evenodd" clip-rule="evenodd" d="M285.984 323.967C285.984 324.826 285.433 325.493 284.605 325.493H271.64C270.812 325.493 270.261 324.826 270.261 323.967V216.169C270.261 215.311 270.812 214.644 271.64 214.644H284.605C285.433 214.644 285.984 215.311 285.984 216.169V323.967Z" fill="#19172B"/>
</svg>
