<svg width="3413" height="1544" viewBox="0 0 3413 1544" fill="none" xmlns="http://www.w3.org/2000/svg">
<path d="M209.499 1249.02L200.535 1429.3M200.535 1429.3L200.518 1429.66M200.535 1429.3L199.856 1429.52L199.847 1429.52L43.8558 1476.52M200.535 1429.3L303.545 1396.29M200.518 1429.66L200.499 1430.02M200.518 1429.66L200.177 1429.53M200.518 1429.66L363.802 1491.39M303.545 1396.29L458.847 1346.52M303.545 1396.29L209.422 1248.73M303.545 1396.29L364.006 1491.08M209.183 1248.53L459.183 1346.53M364.006 1491.08L364.422 1491.73M364.006 1491.08L363.802 1491.39M364.006 1491.08L458.582 1346.73M363.582 1491.73L363.802 1491.39M363.802 1491.39L364.177 1491.53M363.977 1492.5L157.719 1482.83M157.719 1482.83L43.9766 1477.5M157.719 1482.83L200.388 1430.32M157.719 1482.83L135.388 1510.32M134.83 1510.47L43.8296 1477.47M459.5 1126V1344.26M459.5 1344.26V1344.65M459.5 1344.26L458.816 1344.54M459.5 1344.26L596.143 1290.11M459.5 1344.65V1344.78M459.5 1344.65L459.165 1344.53M459.5 1344.65L596.908 1392.76M459.5 1344.78V1345M459.5 1344.78L459.334 1344.63M459.5 1344.78L567.334 1441.63M596.143 1290.11L675.816 1258.54M596.143 1290.11L459.384 1125.68M596.143 1290.11L632.218 1333.48M459.261 1125.57L676.175 1258.52M676.175 1258.52L676.261 1258.57M676.175 1258.52L676.075 1258.51M676.175 1258.52L676.971 1258.64M632.218 1333.48L716.254 1434.52M632.218 1333.48L676.407 1259.29M632.218 1333.48L596.908 1392.76M716.254 1434.52L716.384 1434.68M716.254 1434.52L716.109 1434.51M716.254 1434.52L716.408 1434.54M716.023 1435.5L713.598 1435.61M713.598 1435.61L567.926 1442.46M713.598 1435.61L601.166 1490.36M713.598 1435.61L715.781 1434.55M567.926 1442.46L567.023 1442.5M567.926 1442.46L567.594 1441.98M567.926 1442.46L601.166 1490.36M596.908 1392.76L716.109 1434.51M596.908 1392.76L567.594 1441.98M716.109 1434.51L716.165 1434.53M716.109 1434.51L716.05 1434.5M567.411 1441.71L567.594 1441.98M567.594 1441.98L567.43 1442.26M601.166 1490.36L601.411 1490.71M601.166 1490.36L600.781 1490.55M676.488 1258.89L676.544 1259.14M676.544 1259.14L716.408 1434.54M676.544 1259.14L676.971 1258.64M676.544 1259.14L676.407 1259.29M716.408 1434.54L716.488 1434.89M716.408 1434.54L716.522 1434.55M676.43 1259.26L676.407 1259.29M676.407 1259.29L676.378 1259.33M822.412 1281.28L822.32 1281.42M822.32 1281.42L716.891 1434.59M822.32 1281.42L822.952 1281.19M822.32 1281.42L822.168 1281.47M716.891 1434.59L716.412 1435.28M716.891 1434.59L716.522 1434.55M716.891 1434.59L1024.88 1465.49M727.5 1200.02L727.496 1200.1M727.496 1200.1L727.484 1200.36M727.496 1200.1L727.593 1199.85M727.496 1200.1L727.467 1200.18M727.484 1200.36L724.421 1265.79M727.484 1200.36L727.98 1200.18M727.484 1200.36L727.293 1200.43M724.421 1265.79L716.522 1434.55M724.421 1265.79L676.971 1258.64M724.421 1265.79L822.075 1280.51M716.522 1434.55L716.5 1435.02M727.378 1200.33L727.293 1200.43M727.293 1200.43L676.971 1258.64M727.293 1200.43L727.169 1200.47M1024.88 1465.49L1025.05 1465.5M1024.88 1465.49L1024.74 1465.57M1024.88 1465.49L1025.06 1465.38M822.337 1280.63L822.51 1280.79M822.51 1280.79L822.952 1281.19M822.51 1280.79L822.517 1280.63M822.51 1280.79L822.5 1281.02M822.952 1281.19L1025.06 1465.38M822.952 1281.19L823.65 1280.94M1025.06 1465.38L1025.34 1465.63M1025.06 1465.38L1025.27 1465.25M1079.48 1301.16L1025.9 1464.86M1025.9 1464.86L1025.48 1466.16M1025.9 1464.86L1025.27 1465.25M1025.9 1464.86L1334.74 1275.57M976.543 1324.04L976.475 1323.84L976.473 1323.84L976.334 1323.41M976.543 1324.04L1025.27 1465.25M976.543 1324.04L976.94 1323.28M976.543 1324.04L976.443 1324.23M1025.27 1465.25L1025.47 1465.84M822.135 1280.52L822.241 1280.55M822.241 1280.55L822.517 1280.63M822.241 1280.55L727.98 1200.18M822.241 1280.55L822.324 1280.62M822.517 1280.63L823.65 1280.94M822.517 1280.63L827.78 1164.24M823.65 1280.94L976.013 1323.48M823.65 1280.94L947.941 1236.58M976.013 1323.48L976.135 1323.52M976.013 1323.48L975.891 1323.51M976.013 1323.48L976.334 1323.41M727.324 1199.62L727.593 1199.85M727.593 1199.85L727.98 1200.18M727.593 1199.85L839.467 905.177M727.98 1200.18L827.78 1164.24M839.5 905.023L827.78 1164.24M827.78 1164.24L914.123 1133.15M839.247 904.565L1113.05 1060.45M1113.05 1060.45L1113.25 1060.57M1113.05 1060.45L1112.83 1060.53M1113.05 1060.45L1113.5 1060.28M839.475 904.845L914.123 1133.15M914.123 1133.15L947.941 1236.58M914.123 1133.15L966.438 1114.31M947.941 1236.58L976.334 1323.41M947.941 1236.58L1024.07 1209.4M976.334 1323.41L976.94 1323.28M1113.44 1061.23L1099.98 1087.08M1099.98 1087.08L1039.04 1204.06M1099.98 1087.08L1080.31 1073.3M1099.98 1087.08L1108.92 1093.34M1039.04 1204.06L1030.63 1220.22M1039.04 1204.06L1096.12 1183.68M1039.04 1204.06L1024.07 1209.4M1030.63 1220.22L976.94 1323.28M1030.63 1220.22L1024.07 1209.4M1030.63 1220.22L1079.04 1300.1M976.94 1323.28L1078.71 1300.55M839.428 904.741L966.438 1114.31M966.438 1114.31L1024.07 1209.4M966.438 1114.31L1080.31 1073.3M1079.04 1300.1L1079.26 1300.47M1079.04 1300.1L1078.71 1300.55M1079.04 1300.1L1079.78 1299.09M1079.26 1300.47L1079.43 1300.74M1079.26 1300.47L1078.95 1300.5M1079.26 1300.47L1079.58 1300.44M839.287 904.59L1080.31 1073.3M1080.31 1073.3L1113.17 1061.47M1108.92 1093.34L1189.22 1149.54M1108.92 1093.34L1113.5 1061.07M1108.92 1093.34L1096.12 1183.68M1189.22 1149.54L1189.29 1149.59M1189.22 1149.54L1189.14 1149.52M1189.22 1149.54L1189.28 1149.56M1187.64 1151.02L1189.15 1150.48L1189.17 1150.47L1190.01 1150.21M1187.64 1151.02L1096.12 1183.68M1187.64 1151.02L1079.78 1299.09M1187.64 1151.02L1188.6 1149.71M1096.12 1183.68L1079.78 1299.09M1078.71 1300.55L1078.89 1300.51M1078.71 1300.55L1078.6 1300.71M1079.45 1300.78L1079.52 1300.92M1079.52 1300.92L1128.45 1401.78M1079.52 1300.92L1079.58 1300.44M1079.52 1300.92L1079.5 1301.07M1079.78 1299.09L1079.58 1300.44M1079.58 1300.44L1334.95 1275.5M1189.33 1149.62L1189.36 1149.65M1189.36 1149.65L1189.62 1149.88M1189.36 1149.65L1189.28 1149.56M1189.36 1149.65L1189.38 1149.68M1189.62 1149.88L1190.01 1150.21M1189.62 1149.88L1189.72 1149.69M1189.62 1149.88L1189.45 1150.23M1190.01 1150.21L1335.33 1275.62M1190.01 1150.21L1190.73 1149.99M1335.46 1275.8L1335.55 1276.01M1335.55 1276.01L1394.46 1409.8M1335.55 1276.01L1336.61 1273.73M1335.55 1276.01L1335.45 1276.21M1601.4 1137.3L1599.68 1139.57M1599.68 1139.57L1394.4 1410.3M1599.68 1139.57L1594.2 1141.06M1599.68 1139.57L1599.87 1139.52M1601.23 1137.44L1594.2 1141.06M1594.2 1141.06L1336.61 1273.73M1594.2 1141.06L1369.43 1202.36M1336.61 1273.73L1335.23 1274.44M1336.61 1273.73L1369.45 1203.21M1357.15 1098.48L1357.04 1098.51M1357.04 1098.51L1190.73 1149.99M1357.04 1098.51L1357.57 1098.6M1357.04 1098.51L1356.92 1098.49M1190.73 1149.99L1189.72 1149.69M1190.73 1149.99L1369.01 1202.48M1262.45 1006.23L1189.72 1149.69M1189.72 1149.69L1189.28 1149.56M1113.5 1060.28L1261.79 1005.55M1113.5 1060.28V857M1113.5 1060.28V1060.82M1261.79 1005.55L1261.83 1005.53M1261.79 1005.55L1261.75 1005.57M1261.79 1005.55L1262.08 1005.37M1113.38 1060.68L1113.5 1060.82M1113.5 1060.82L1189.28 1149.56M1113.5 1060.82V1061M1369.01 1202.48L1369.14 1202.52M1369.01 1202.48L1368.87 1202.52M1369.01 1202.48L1369.43 1202.36M1357.5 1097.94L1357.52 1098.12M1357.52 1098.12L1357.57 1098.6M1357.52 1098.12L1358.23 1096.98M1357.52 1098.12L1357.42 1098.27M1357.57 1098.6L1369.43 1202.36M1357.57 1098.6L1599.92 1137.49M1369.43 1202.36L1369.5 1202.94M1357.12 1097.42L1262.35 1005.65L1262.35 1005.64L1262.08 1005.37M1357.12 1097.42L1357.35 1097.64M1357.12 1097.42L1356.82 1097.53M1357.12 1097.42L1358.23 1096.98M1113.35 856.646L1262.08 1005.37M1262.08 1005.37L1502.75 865.568M1503.42 866.266L1503.18 866.652M1503.18 866.652L1358.23 1096.98M1503.18 866.652L1503.77 866.951M1503.18 866.652L1502.77 866.446M1358.23 1096.98L1544.82 1023.53M1503.48 865.872L1503.77 866.951M1503.77 866.951L1545.35 1023.38M1503.77 866.951L1716.63 974.867M1545.35 1023.38L1545.47 1023.82M1545.35 1023.38L1544.86 1023.52M1545.35 1023.38L1716.63 974.867M1545.47 1023.82L1545.48 1023.87M1545.47 1023.82L1545.45 1023.78M1545.47 1023.82L1600.09 1136.03M1716.63 974.867L1717.83 974.53L1717.86 974.519L1718.72 974.203M1716.63 974.867L1717.25 975.18M1600.09 1136.03L1600.29 1136.46M1600.09 1136.03L1599.6 1136.71M1600.09 1136.03L1717.25 975.18M1600.29 1136.46L1600.45 1136.78M1600.29 1136.46L1599.93 1136.5M1600.29 1136.46L1990.56 1084.55M1717.25 975.18L1717.6 974.706M1717.25 975.18L1717.77 975.446M1990.56 1084.55L1990.75 1084.53M1990.56 1084.55L1990.51 1084.93M1990.56 1084.55L1990.6 1084.3M1990.75 1084.53L1990.9 1084.51L1990.93 1084.5L1991.04 1084.48M1990.75 1084.53L1990.63 1084.66M1990.75 1084.53L1990.86 1084.41M1718.19 974.536L1718.59 974.7M1718.59 974.7L1990.6 1084.3M1718.59 974.7L1718.72 974.203M1718.59 974.7L1718.48 975.126M1990.6 1084.3L1990.86 1084.41M1990.6 1084.3L1990.76 1083.22M1990.86 1084.41L1991.04 1084.48M1990.86 1084.41L1991.15 1084.1M1991.04 1084.48L1991.19 1084.54M1991.04 1084.48L1991.29 1084.43M1801.48 656.126L1718.72 974.203M1718.72 974.203L1911.26 903.73M1801.19 655.539L2190.97 819.445M2190.97 819.445L2191.11 819.502M2190.97 819.445L2190.81 819.532M2190.97 819.445L2191.64 819.077M2191.11 819.502L2191.19 819.539M2191.11 819.502L2191.01 819.5M2191.11 819.502L2191.58 819.51M1801.46 655.797L1911.26 903.73M1911.26 903.73L1990.76 1083.22M1911.26 903.73L2023.83 862.53M1990.76 1083.22L1991.15 1084.1M1990.76 1083.22L2023.51 862.926M1991.15 1084.1L1991.29 1084.43M1991.15 1084.1L2102.63 961.663M1991.29 1084.43L1991.46 1084.8M1991.29 1084.43L1994.42 1083.76M1801.34 655.634L2024.14 862.448M2024.14 862.448L2024.34 862.634M2024.14 862.448L2023.88 862.516M2024.14 862.448L2190.81 819.532M2190.81 819.532L2190.88 819.516M2190.81 819.532L2190.76 819.562M1994.42 1083.76L1997.47 1083.1M1994.42 1083.76L2000.52 1080.53M1994.42 1083.76L1991.23 1085.44M1997.47 1083.1L2466.64 982.78M1997.47 1083.1L1995.68 1084.62M1997.47 1083.1L2000.52 1080.53M2466.64 982.78L2467.9 982.511M2466.64 982.78L2467.75 983.431M2466.64 982.78L2465.89 982.337M2191.49 819.902L2191.51 819.986M2191.51 819.986L2191.71 820.997M2191.51 819.986L2191.58 819.51M2191.51 819.986L2191.49 820.071M2191.71 820.997L2208.55 905.193M2191.71 820.997L2260.45 861.447M2191.71 820.997L2191.17 820.679M2208.55 905.193L2220.21 963.515M2208.55 905.193L2140.6 962.464M2208.55 905.193L2260.45 861.447M2220.21 963.515L2220.49 964.902M2220.21 963.515L2220.04 963.501M2220.21 963.515L2465.89 982.337M2024.39 862.688L2103.25 961.506M2103.25 961.506L2103.39 961.688M2103.25 961.506L2103.01 961.5M2103.25 961.506L2103.88 961.522M2103.88 961.522L2140.6 962.464M2103.88 961.522L2191.17 820.679M2103.88 961.522L2103.43 962.263M2140.6 962.464L2220.01 964.5M2140.6 962.464L2000.52 1080.53M2465.89 982.337L2468.04 982.501M2465.89 982.337L2260.45 861.447M2220.23 964.442L2000.52 1080.53M2622.31 861.392L2468.31 983.392M2191.43 820.263L2191.17 820.679M2191.17 820.679L2190.75 820.431M2260.45 861.447L2307.72 821.607M2307.72 821.607L2377.45 762.828M2307.72 821.607L2191.58 819.51M2307.72 821.607L2402.48 823.317M2377.45 762.828L2536.68 628.618M2377.45 762.828L2361.85 725.117M2377.45 762.828L2402.48 823.317M2191.64 819.077L2361.85 725.117M2191.64 819.077L2245.49 444.071M2191.64 819.077L2191.58 819.51M2361.85 725.117L2536.71 628.592L2536.76 628.562L2536.98 628.398M2361.85 725.117L2245.46 443.809M2402.48 823.317L2467.65 824.494M2402.48 823.317L2468.46 982.809M2467.65 824.494L2468.01 824.5M2467.65 824.494L2467.53 824.834M2467.65 824.494L2468.65 821.649M2468.5 825V983M2468.65 821.649L2536.53 628.834M2468.65 821.649L2468.12 821.515M2468.65 821.649L2622.12 860.515M2245.27 443.578L2536.98 628.398M2536.98 628.398L2537.24 628.561L2537.27 628.578L2537.59 628.75M2536.98 628.398L2537.85 627.784M2712.42 724.274L2622.42 861.274M2537.47 628.828L2537.52 628.978M2537.52 628.978L2622.47 860.828M2537.52 628.978L2537.59 628.75M2537.52 628.978L2537.48 629.132M2537.59 628.75L2711.95 723.404M2537.59 628.75L2537.85 627.784M2711.95 723.404L2712.11 723.489M2711.95 723.404L2711.69 723.607M2711.95 723.404L2712.3 723.126M2712.11 723.489L2712.24 723.561M2712.11 723.489L2711.96 723.502M2712.11 723.489L2712.39 723.464M2573.48 498.132L2537.85 627.784M2537.85 627.784L2666.71 536.592M2573.2 497.54L2664.2 536.54M2667.49 536.883L2667.55 537.14M2667.55 537.14L2712.3 723.126M2667.55 537.14L2668.02 536.621M2667.55 537.14L2667.37 537.335M2712.3 723.126L2712.39 723.464M2712.3 723.126L2911.69 566.607M2712.39 723.464L2712.49 723.883M2712.39 723.464L2882.87 708.51M2572.72 497.583L2892.72 286.583M2893.37 287.335L2668.02 536.621M2668.02 536.621L2667.06 536.504M2668.02 536.621L2912.03 566.501L2912.06 566.504L2912.47 566.529M2893.5 286.966L2912.47 566.529M2912.47 566.529L2912.5 566.966M2912.47 566.529L3147.83 581.488M2882.87 708.51L2882.96 708.502M2882.87 708.51L2882.78 708.549M2882.87 708.51L2883.69 708.114M2912.49 567.1L2883.69 708.114M2883.69 708.114L2883.49 709.1M2883.69 708.114L3147.72 581.578M3147.72 581.578L3147.78 581.549M3147.72 581.578L3147.67 581.622M3147.72 581.578L3147.83 581.488M3147.83 581.488L3148.03 581.501M3147.83 581.488L3148.05 581.294M2893.38 286.673L3148.05 581.294M3148.05 581.294L3148.38 581.673M3148.05 581.294L3148.56 580.856M2893.15 286.524L3158.15 371.524M3158.5 372.024L3158.5 372.06M3158.5 372.06L3148.56 580.856M3158.5 372.06L3158.56 371.761M3158.5 372.06L3158.49 372.096M3148.56 580.856L3148.5 582.024M3148.56 580.856L3291.67 456.622M3158.27 371.578L3158.56 371.761M3158.56 371.761L3292.27 456.578M3158.56 371.761L3230.49 4.09598M3230.5 3.93217L3292.5 456.932M3374.43 312.25L3292.43 454.25M3230.45 3.78821L3374.45 311.788M1992.39 1083.69L2135 1182.5L2468.39 982.316M2468.4 981.702L2614.4 1178.7M2613.5 1178.99L2621.5 860.987M2713.33 723.622L2845.33 837.622M2844.52 837.856L2883.52 707.856M2845.05 838.497L2622.05 861.497M2845.41 838.28L2614.41 1179.28M3148.5 575.03L3036.5 742M2884.02 707.5L3036.5 741.5M3036.79 741.546L3314 636.5M3148.13 579.517L3313.5 636.5L3292.5 454.976" stroke="white"/>
<circle cx="462" cy="1128" r="7" fill="white"/>
<circle cx="211" cy="1251" r="7" fill="white"/>
<circle cx="47" cy="1477" r="7" fill="white"/>
<circle cx="362" cy="1490" r="7" fill="white"/>
<circle cx="460" cy="1345" r="7" fill="white"/>
<circle cx="727" cy="1201" r="7" fill="white"/>
<circle cx="1025" cy="1465" r="7" fill="white"/>
<circle cx="822" cy="1281" r="7" fill="white"/>
<circle cx="714" cy="1433" r="7" fill="white"/>
<circle cx="2894" cy="287" r="8" fill="white"/>
<circle cx="2247" cy="444" r="8" fill="white"/>
<circle cx="2537" cy="628" r="8" fill="white"/>
<circle cx="2191" cy="819" r="8" fill="white"/>
<circle cx="1992" cy="1084" r="8" fill="white"/>
<circle cx="2103" cy="962" r="8" fill="white"/>
<circle cx="977" cy="1323" r="8" fill="white"/>
<circle cx="1600" cy="1136" r="8" fill="white"/>
<circle cx="1189" cy="1150" r="8" fill="white"/>
<circle cx="1079" cy="1300" r="8" fill="white"/>
<circle cx="3231" cy="8" r="8" fill="white"/>
<circle cx="1718" cy="974" r="8" fill="white"/>
<circle cx="2912" cy="567" r="8" fill="white"/>
<circle cx="3146" cy="581" r="8" fill="white"/>
<circle cx="2468" cy="982" r="8" fill="white"/>
<circle cx="1395" cy="1407" r="8" fill="white"/>
<circle cx="1336" cy="1275" r="8" fill="white"/>
<circle cx="603" cy="1489" r="8" fill="white"/>
<circle cx="200" cy="1430" r="8" fill="white"/>
<circle cx="2024" cy="864" r="8" fill="white"/>
<circle cx="2469" cy="825" r="8" fill="white"/>
<circle cx="2622" cy="861" r="8" fill="white"/>
<circle cx="2713" cy="724" r="8" fill="white"/>
<circle cx="3292" cy="455" r="8" fill="white"/>
<circle cx="3159" cy="372" r="8" fill="white"/>
<circle cx="2884" cy="708" r="8" fill="white"/>
<circle cx="2668" cy="537" r="8" fill="white"/>
<circle cx="1358" cy="1098" r="8" fill="white"/>
<circle cx="676" cy="1258" r="8" fill="white"/>
<circle cx="3374" cy="312" r="8" fill="white"/>
<path d="M379.5 1328.5L379.718 1328.3M379.718 1328.3L574.5 1152.5M379.718 1328.3L379.711 1328.3M379.718 1328.3L381.443 1330.05M574.498 1151.96L574.59 1153M574.59 1153L592.28 1353.4M574.59 1153H575.477M574.59 1153H574M592.28 1353.4L602 1463.5M592.28 1353.4L696.432 1279.95M592.28 1353.4L512.433 1409.7M601.48 1463.85L512.433 1409.7M512.433 1409.7L381.443 1330.05M512.433 1409.7L481.679 1431.39M381.443 1330.05L379.992 1329.17M381.443 1330.05L481.679 1431.39M379.992 1329.17L379.48 1328.85M379.992 1329.17L379.998 1329.06M379.992 1329.17L369.998 1510.06M877 1153H876.596M876.596 1153H876.45M876.596 1153L876.299 1153.86M876.596 1153L876.643 1152.86M876.45 1153H575.477M876.45 1153L876.643 1152.86M876.45 1153L696.432 1279.95M575.477 1153L696.432 1279.95M575.477 1153L575 1152.5M877.288 1152.41L877.026 1152.59M877.026 1152.59L876.643 1152.86M877.026 1152.59L877.284 1152.74M877.026 1152.59L876.785 1152.45M876.643 1152.86L876.785 1152.45M696.432 1279.95L731.827 1317.1M481.679 1431.39L369.5 1510.5M481.679 1431.39L560.312 1510.89M369.5 1510.5H368.697M369.5 1510.5H370M369.581 1510.91L368.697 1510.5M368.697 1510.5L135.642 1402.94M368.697 1510.5H3.5M135.642 1402.94L135.581 1402.91M135.642 1402.94L136.315 1402.39M135.642 1402.94L3.5 1510.5M135.71 1402.02L379.71 1328.04M3.5 1510.5H3.19128M560.312 1510.89L560.711 1511.3M560.312 1510.89L559.626 1511.67M560.312 1510.89L601.82 1463.99M601.82 1463.99L731.827 1317.1M601.82 1463.99L746.692 1510.95M601.82 1463.99L601.692 1463.95M731.827 1317.1L876.299 1153.86M731.827 1317.1L796.351 1384.82M876.299 1153.86L877.284 1152.74M876.299 1153.86L796.351 1384.82M877.284 1152.74L877.5 1152.5M877.284 1152.74L1068.42 1264.16M746.537 1509.81L797 1385.5M797 1385.5L602.5 1463.5M797 1385.5L796.602 1385.08M796.602 1385.08L796.351 1384.82M796.602 1385.08L796.594 1385.09M796.602 1385.08L1068.42 1264.16M796.351 1384.82L796.055 1385.67M876.785 1152.45L877.055 1151.67M876.785 1152.45L876.746 1152.43M1068.42 1264.16L1068.59 1264.09M1068.42 1264.16L1069 1264.5M896.591 1509.71L897.272 1508.74M897.272 1508.74L1069 1264.5M897.272 1508.74L797.778 1385.37M897.272 1508.74L897.778 1509.37M1069 1264.5L1138.49 934.543M877 1152.5L1138.45 934.539M1138.45 934.539L1138.5 934.5L1138.49 934.543M1138.45 934.539L1138 934.5M1138.45 934.539L1138.49 934.543M1138.49 934.543L1609.04 975.502M1069.27 1264.04L1274.24 1321.75M1274.24 1321.75L1274.63 1321.86M1274.24 1321.75L1274.38 1322.17M1274.24 1321.75L1138.53 935.166M1274.63 1321.86L1275.27 1322.04M1274.63 1321.86L1274.38 1322.17M1274.63 1321.86L1442.81 1106.9M1069.63 1264.22L1369.83 1508.57M1369.83 1508.57L1370.23 1508.9M1369.83 1508.57L1274.5 1322.5M1369.83 1508.57L1370.09 1509.08M1370.23 1508.9L1370.63 1509.22M1370.23 1508.9L1370.09 1509.08M1370.23 1508.9L1444.3 1415.25M1274.5 1322.5L1444 1415L1444.3 1415.25M1274.5 1322.5L1274.38 1322.17M1370.09 1509.08L1370.45 1509.77M1370.09 1509.08L1369.61 1509.69M1444.3 1415.25L1444.5 1415M1444.3 1415.25L1557.11 1509.44M1444.5 1415L1609.08 977.216M1444.5 1415L1855.12 1415.5M1444.5 1415L1718.5 1237L1718.54 1237.05M1274.21 1322.38L1274.38 1322.17M1442.81 1106.9L1443.21 1106.38M1442.81 1106.9L1443.75 1107.44M1442.81 1106.9L1138.5 935M1609.62 976.783L1609.22 977.102M1609.22 977.102L1609.08 977.216M1609.22 977.102L1610.72 977.528M1609.22 977.102L1609.13 977.076M1609.08 977.216L1444.62 1107.78M1609.08 977.216L1609.13 977.076M1609.47 976.175L1609.13 977.076M1609.13 977.076L1608.73 976.962M1444.5 1107L1444 1414.5M1557.11 1509.44L1557.32 1509.62M1557.11 1509.44L1556.85 1509.52M1557.11 1509.44L1855.29 1415.72M1855.29 1415.72L1855.98 1415.51M1855.29 1415.72L1855.5 1416L1855.98 1415.51M1855.29 1415.72L1855.12 1415.5M1855.98 1415.51L1856 1415.5L1857.7 1415.7M1855.98 1415.51L2028.4 1237.11M1855.5 1415.5L1855.12 1415.5M1855.12 1415.5L1718.54 1237.05M1718.54 1237.05L1718.85 1236.45M1718.54 1237.05L1718.44 1237.23M1718 1236H1718.67M1718.67 1236H1719.08M1718.67 1236L1610.72 977.528M1718.67 1236L1718.85 1236.45M1719.08 1236H2027.26M1719.08 1236L1822.45 1037.6M1719.08 1236L1718.85 1236.45M2027.26 1236H2028.32M2027.26 1236L2028.4 1237.11M2027.26 1236L1823.06 1037.06M2028.32 1236H2028.91M2028.32 1236L2114.76 1098.88M2028.32 1236L2028 1236.5M2028.91 1236H2029M2028.91 1236L2028.81 1236.02M2028.91 1236L2415.2 1162.7M2028.5 1237L2028.4 1237.11M2028.4 1237.11L2028.65 1237.36M1823.06 1037.06L1823 1037L1823.1 1036.97M1823.06 1037.06L1823.1 1036.97M1823.06 1037.06L1822.92 1037.39M1822.5 1037.5L1822.45 1037.6M1822.45 1037.6L1823.73 1037.96M1822.45 1037.6L1610.72 977.528M1718.85 1236.45L1718.92 1236.61M1610.72 977.528L1609.92 975.615M1608.41 975.193L1955.41 721.193M1956.92 722.391L1956.41 723.598M1956.41 723.598L1823.1 1036.97M1956.41 723.598L2219.28 931.708M1956.41 723.598L1955.38 722.784M1823.1 1036.97L2219.28 931.708M1956.02 721.5L2404.01 742.454M2404.01 742.454L2405 742.5L2568.09 454.229M2404.01 742.454L2404.08 744.371M2404.01 742.454L2404 742.033M2405.71 742.7L2405.22 743.206M2405.22 743.206L2404.98 743.445M2405.22 743.206L2404.59 743.026M2405.22 743.206L2593.32 797.266M2404.98 743.445L2404.08 744.371M2404.98 743.445L2491.27 835.312M2404.98 743.445L2404.59 743.026M2404.08 744.371L2221.66 930.737M2404.08 744.371L2408.08 864.755M2221.66 930.737L2220.71 931.7M2221.66 930.737L2219.5 931.5M2221.66 930.737L2408.08 864.755M2219.38 931.784L2219.3 931.724M2219.3 931.724L2219.28 931.708M2219.3 931.724L2219.78 932.283M2219.3 931.724L2219.29 931.707M2219.28 931.708L2219.29 931.707M2220.13 931.484L2219.29 931.707M2219.29 931.707L2219.24 931.651M2220.42 931.267L2219.96 932M2219.96 932L2219.78 932.283M2219.96 932L2410.73 944.355M2219.96 932L2219.94 931.998M2219.78 932.283L2114.76 1098.88M2219.78 932.283L2417.12 1162.34M2114.76 1098.88L2415.2 1162.7M2114.76 1098.88L1823.5 1037M2415.2 1162.7L2417.12 1162.34M2415.2 1162.7L2417.49 1163.19M2417.12 1162.34L2417.97 1162.18M2417.12 1162.34L2417.67 1162.99M2417.97 1162.18L2418.48 1162.08M2417.97 1162.18L2417.99 1162.64M2417.97 1162.18L2410.73 944.355M2418.48 1162.08L2418.71 1162.04M2418.48 1162.08L2418.26 1162.33M2418.48 1162.08L2603.87 956.864M2418.71 1162.04L2418.81 1162.02M2418.71 1162.04L2418.61 1162.08M2418.71 1162.04L2567.73 1098.17M2418.89 1163.49L2418.78 1163.47M2418.78 1163.47L2417.92 1163.28M2418.78 1163.47L2420.5 1164.79M2418.78 1163.47L2418.69 1163.4M2417.92 1163.28L2417.49 1163.19M2417.92 1163.28L2418.24 1163.65M2417.92 1163.28L2417.67 1162.99M2417.49 1163.19L2164.13 1449.34M2417.49 1163.19L2417.67 1162.99M2029.85 1236.47L2164.13 1449.34M2164.13 1449.34L2164.85 1450.47M2164.13 1449.34L2163.37 1450.2M2163.94 1451.5L2161.51 1451.21M2161.51 1451.21L1857.7 1415.7M2161.51 1451.21L2054.97 1508.88M2161.51 1451.21L2163.37 1450.2M1857.7 1415.7L1856.43 1415.1M1857.7 1415.7L2054.97 1508.88M2054.97 1508.88L2055.43 1509.1M2054.97 1508.88L2054.52 1509.12M2163.37 1450.2L2163.52 1450.12M2163.37 1450.2L2163.25 1450.34M2164.98 1450.83L2165.17 1451.88M2165.17 1451.88L2175.79 1511.71M2165.17 1451.88L2474.93 1420.04M2165.17 1451.88L2164.1 1451.99M2175.79 1511.71L2175.98 1512.83M2175.79 1511.71L2174.71 1512.04M2175.79 1511.71L2474.93 1420.04M2474.93 1420.04L2484.17 1417.21M2474.93 1420.04L2484.95 1419.01M2484.17 1417.21L2484.71 1417.04M2484.17 1417.21L2484.03 1417.75M2484.17 1417.21L2485.01 1414.03M2485.1 1418.99L2484.95 1419.01M2484.95 1419.01L2486.82 1419.4M2484.95 1419.01L2484.8 1418.98M2417.67 1162.99L2417.99 1162.64M2417.99 1162.64L2418.25 1162.34M2417.99 1162.64L2418 1163.03M2419.97 1162.75L2420.5 1164.79M2420.5 1164.79L2485.01 1414.03M2420.5 1164.79L2528.42 1248.26M2485.01 1414.03L2485.94 1417.65M2485.01 1414.03L2528.42 1248.26M2485.94 1417.65L2485.97 1417.75M2485.94 1417.65L2485.89 1417.55M2485.94 1417.65L2486.82 1419.4M2486.82 1419.4L2531.6 1508.97M2486.82 1419.4L2842.04 1493.2M2531.6 1508.97L2531.89 1509.55M2531.6 1508.97L2530.95 1509M2531.6 1508.97L2842.04 1493.2M2842.04 1493.2L2844.92 1493.05M2842.04 1493.2L2845.52 1493.92M2844.92 1493.05L2845.73 1493.01M2844.92 1493.05L2845.5 1493.5M2844.92 1493.05L2528.42 1248.26M2845.73 1493.01L2845.95 1493M2845.73 1493.01L2929.49 1128.11M2845.73 1493.01L2845.52 1493.92M2845.8 1493.98L2845.52 1493.92M2845.52 1493.92L2845.5 1494M2528.42 1248.26L2553.43 1152.79M2603.87 956.864L2604.64 956.013M2603.87 956.864L2604.73 956.92M2603.87 956.864L2410.73 944.355M2604.64 956.013L2604.97 955.647M2604.64 956.013L2604.89 956.282M2604.64 956.013L2491.27 835.312M2604.97 955.647L2605.26 955.33M2604.97 955.647L2604.99 955.908M2604.97 955.647L2593.46 799.144M2605.94 956.998L2604.73 956.92M2604.73 956.92L2567.73 1098.17M2604.73 956.92L2604.89 956.282M2410.73 944.355L2408.08 864.755M2605.27 956.685L2604.89 956.282M2604.89 956.282L2604.99 955.908M2491.27 835.312L2408.08 864.755M2491.27 835.312L2593.46 799.144M2404.59 743.026L2404.27 742.685M2404.59 743.026L2404.5 743M2605 956.073L2604.99 955.908M2604.99 955.908L2605.03 955.747M2593.46 799.144L2593.32 797.266M2593.46 799.144L2596.33 798.13M2593.32 797.266L2568.09 454.229M2593.32 797.266L2596.33 798.13M2568.09 454.229L2568 453.073M2568.09 454.229L2568.35 453.768M2568.35 453.768L2568.5 453.5L3025.5 410.545M2568.35 453.768L2817.21 719.951M2568.35 453.768L2568.27 453.683M2596.33 798.13L2817.21 719.951M2596.33 798.13L2997.08 913.305M2817.21 719.951L3019.94 648.2M2817.21 719.951L2997.9 913.218M3019.94 648.2L3021.83 647.529M3019.94 648.2L3021.6 648.919M3019.94 648.2L2568.6 453.919M2997.08 913.305L2998.28 913.649M2997.08 913.305L2605.89 955.006M2997.08 913.305L2997.9 913.218M2998.28 913.649L2998.31 913.659M2998.28 913.649L2738.04 1025.18M2998.28 913.649L2998.3 913.642M2998.31 913.659L2998.99 913.855M2998.31 913.659L2998.86 914.249M2998.31 913.659L2998.3 913.642M2998.99 913.855L2999.5 914M2998.99 913.855L2998.86 914.249M2998.99 913.855L2999.05 913.685M2999.27 914.683L2998.86 914.249M2998.86 914.249L2928.42 1126.56M2998.3 913.642L2997.9 913.218M2998.3 913.642L2999.61 913.081M2997.9 913.218L2999.89 913.006M3023 648.082L3022.96 648.532M3023 648.082L3023.98 646.784M3023 648.082L3022.75 648.408M3022.96 648.532L3022.94 648.805M3022.96 648.532L3335 659M3022.96 648.532L3022.8 648.527M3022.94 648.805L3001.02 913.855M3022.94 648.805L3022.8 648.527M3022.94 648.805L3109.66 831.078M3001.02 913.855L3001 914.082M3001.02 913.855L3109.66 831.078M3001.02 913.855L3000.3 914.398M2553.43 1152.79L2567.73 1098.17M2553.43 1152.79L2418.93 1162M2553.43 1152.79L2928.24 1127.12M2567.73 1098.17L2738.04 1025.18M2928.24 1127.12L2928.94 1127.07M2928.24 1127.12L2928.05 1127.69M2928.24 1127.12L2928.42 1126.56M2738.04 1025.18L2606.47 955.117M2738.04 1025.18L2928.42 1126.56M2928.42 1126.56L2929.12 1126.93M2929.12 1126.93L2929.47 1127.12M2929.12 1126.93L2928.75 1127.03M2929.12 1126.93L3214.57 1052.08M2929.48 1127.86L3052 1536M2929.62 1127.22L3135.28 1290.21M3135.28 1290.21L3276.13 1401.83M3135.28 1290.21L3215.43 1052.71M3135.28 1290.21L3052.21 1536.37M3276.13 1401.83L3276.62 1402.22M3276.13 1401.83L3275.57 1402.74M3276.13 1401.83L3276.66 1400.95M3215.43 1052.71L3215.5 1052.5L3214.78 1052.04M3215.43 1052.71L3215.33 1052.63M3215.43 1052.71L3216.07 1053.29M3052.21 1536.37L3052.19 1536.44M3052.21 1536.37L3276 1402M3052.21 1536.37L3052.13 1536.42M3052.19 1536.44L3052 1537M3052.19 1536.44L3052.13 1536.42M3052.19 1536.44L3052.5 1536.5M3214.57 1052.08L3214.75 1052.03M3214.57 1052.08L3214.42 1052.19M3214.57 1052.08L3214.7 1051.99M3215.98 1052.83L3216.07 1053.29M3216.07 1053.29L3276.66 1400.95M3216.07 1053.29L3391.8 1211.32M3276.66 1400.95L3276.98 1402.83M3276.66 1400.95L3391.8 1211.32M3052.13 1536.42L3052 1536.5M3052.13 1536.42L2846.1 1493.51M3214.78 1052.04L3214.7 1051.99M3214.78 1052.04L3214.74 1051.96M3214.78 1052.04L3215 1052.5M3214.7 1051.99L2999.73 914.42M3214.7 1051.99L3214.74 1051.96M3215.5 1052L3215.73 1051.25M3215.73 1051.25L3335.5 659L3109.66 831.078M3215.73 1051.25L3214.74 1051.96M3215.73 1051.25L3373.39 938.205M3022.8 648.527L3021.98 648.5M3022.8 648.527L3022.75 648.408M3109.66 831.078L3214.74 1051.96M3022.45 647.788L3022.5 647.89M3022.5 647.89L3022.75 648.408M3022.5 647.89L3025.5 410.545M3022.5 647.89L3022.5 648.008M3022.75 648.408L3022.67 648.51M3025.5 410.545L3025.62 410.533M3025.5 410.545L3025.5 410.5L3025.63 410.509M3025.62 410.533L3025.77 410.519M3025.62 410.533L3025.52 410.852M3025.62 410.533L3025.63 410.509M3025.77 410.519L3025.95 410.502M3025.77 410.519L3194.72 422.267M3025.77 410.519L3025.63 410.509M3025.63 410.509L3113.5 127.5M3113.5 127.5L3113 127.5M3113.5 127.5L3114.39 127.489M3114.39 127.489L3376.5 125.5L3345.52 223.012M3114.39 127.489L3113.38 127.074M3114.39 127.489L3345.38 222.074M3345.52 223.012L3345.49 223.094M3345.52 223.012L3345.43 222.737M3345.52 223.012L3345.74 223.672M3345.49 223.094L3345.48 223.149M3345.49 223.094L3345.5 223.043M3345.49 223.094L3345.4 224.123M3345.8 223.605L3345.74 223.672M3345.74 223.672L3345.4 224.123M3345.74 223.672L3394.37 366.124M3345.4 224.123L3194.72 422.267M3345.4 224.123L3327.01 431.331M3194.72 422.267L3023.98 646.784M3194.72 422.267L3326.11 431.404M3023.98 646.784L3023.42 647.186M3023.98 646.784L3326.11 431.404M3326.11 431.404L3326.42 431.186M3326.11 431.404L3326.88 431.457M3327.5 431.5L3327 431.465M3327 431.465L3326.88 431.457M3327 431.465L3327.01 431.331M3327 431.465L3327 431.5L3335.5 658.982M3326.88 431.457L3326.8 431.543M3326.88 431.457L3327.01 431.331M3327.01 431.331L3394.37 366.124M3327.41 431.713L3406.34 495.87M3406.34 495.87L3406.5 496M3406.34 495.87L3335.63 658.664M3406.34 495.87L3406.5 495.5M3335.5 658.5L3373.39 938.205M3373.39 938.205L3373.5 939M3373.39 938.205L3373.42 938.187M3394.37 366.124L3394.5 366M3394.37 366.124L3394.5 366.5M3391.8 1211.32L3392 1211.5M3391.8 1211.32L3391.97 1211.05M3392 1211.5L3355 1521L3276.42 1402.73M3392 1211.5L3391.97 1211.05M3391.97 1211.05L3392 1211M3391.97 1211.05L3373.57 940M3373.57 940L3373.5 939.033M3373.57 940H3374M3373.57 940H3373M897.5 1509L1274.78 1323.55M3114.41 128.712L3327.41 431.712" stroke="url(#paint0_linear_2_770)" stroke-width="3"/>
<circle cx="1610" cy="975" r="10" fill="#FF00D6"/>
<circle cx="1139" cy="935" r="10" fill="#DC02E4"/>
<circle cx="876" cy="1154" r="10" fill="#CF03E9"/>
<circle cx="575" cy="1153" r="10" fill="#BF03EF"/>
<circle cx="380" cy="1328" r="10" fill="#B304F3"/>
<circle cx="137" cy="1402" r="10" fill="#A604F8"/>
<circle cx="10" cy="1507" r="10" fill="#9F05FB"/>
<circle cx="1957" cy="723" r="10" fill="#FF1DBA"/>
<circle cx="2404" cy="743" r="10" fill="#FF597E"/>
<circle cx="2568" cy="454" r="10" fill="#FF7067"/>
<circle cx="3116" cy="129" r="10" fill="#FFBB1C"/>
<circle cx="3026" cy="411" r="10" fill="#FFAC2B"/>
<circle cx="3023" cy="648" r="10" fill="#FFA82F"/>
<circle cx="2999" cy="914" r="10" fill="#FFA532"/>
<circle cx="3216" cy="1051" r="10" fill="#FFC215"/>
<circle cx="2929" cy="1127" r="10" fill="#FF9E39"/>
<circle cx="2418" cy="1162" r="10" fill="#FF597E"/>
<circle cx="2485" cy="1417" r="10" fill="#FF6275"/>
<circle cx="1855" cy="1416" r="10" fill="#FF00D6"/>
<circle cx="1445" cy="1415" r="10" fill="#EE01DD"/>
<circle cx="1069" cy="1266" r="10" fill="#D802E5"/>
<circle cx="603" cy="1463" r="10" fill="#BE03EF"/>
<circle cx="2029" cy="1237" r="10" fill="#FF26B1"/>
<circle cx="2164" cy="1451" r="10" fill="#FF36A1"/>
<circle cx="2605" cy="955" r="10" fill="#FF7265"/>
<circle cx="2220" cy="931" r="10" fill="#FF4097"/>
<circle cx="1824" cy="1037" r="10" fill="#FF0ACD"/>
<circle cx="2843" cy="1491" r="10" fill="#FF9344"/>
<circle cx="3052" cy="1534" r="10" fill="#FFAD2A"/>
<circle cx="3276" cy="1401" r="10" fill="#FFCB0C"/>
<circle cx="3327" cy="432" r="10" fill="#FFD403"/>
<circle cx="3335" cy="659" r="10" fill="#FFD403"/>
<circle cx="3345" cy="223" r="10" fill="#FFD601"/>
<circle cx="2593" cy="798" r="10" fill="#FF7166"/>
<circle cx="1720" cy="1236" r="10" fill="#FD01D7"/>
<circle cx="797" cy="1386" r="10" fill="#CA03EB"/>
<circle cx="369" cy="1508" r="10" fill="#B204F3"/>
<circle cx="1275" cy="1321" r="10" fill="#E502E0"/>
<circle cx="1443" cy="1108" r="10" fill="#EF01DD"/>
<circle cx="1369" cy="1506" r="10" fill="#E902DF"/>
<circle cx="899" cy="1506" r="10" fill="#D202E8"/>
<circle cx="1804" cy="658" r="8" fill="white"/>
<circle cx="1502" cy="869" r="8" fill="white"/>
<circle cx="841" cy="908" r="8" fill="white"/>
<circle cx="1116" cy="861" r="8" fill="white"/>
<circle cx="1557" cy="1508" r="10" fill="#F801D9"/>
<circle cx="2054" cy="1508" r="10" fill="#FF2CAB"/>
<circle cx="3354" cy="1520" r="10" fill="#FFD601"/>
<circle cx="3391" cy="1213" r="10" fill="#FFD601"/>
<circle cx="3375" cy="128" r="10" fill="#FFD502"/>
<circle cx="2534" cy="1508" r="10" fill="#FF6B6C"/>
<circle cx="560" cy="1509" r="10" fill="#BC03F0"/>
<circle cx="743" cy="1509" r="10" fill="#C703EC"/>
<circle cx="3393" cy="366" r="10" fill="#FFD601"/>
<circle cx="3403" cy="497" r="10" fill="#FFD601"/>
<circle cx="3312" cy="635" r="8" fill="white"/>
<circle cx="3037" cy="740" r="8" fill="white"/>
<circle cx="2843" cy="838" r="8" fill="white"/>
<circle cx="2614" cy="1177" r="8" fill="white"/>
<circle cx="2135" cy="1180" r="8" fill="white"/>
<defs>
<linearGradient id="paint0_linear_2_770" x1="3.00002" y1="1005.5" x2="3407" y2="1010" gradientUnits="userSpaceOnUse">
<stop stop-color="#9D04FB"/>
<stop offset="0.5" stop-color="#FF00D6"/>
<stop offset="0.984375" stop-color="#FFD600"/>
</linearGradient>
</defs>
</svg>
